<mxfile host="app.diagrams.net" modified="2023-10-27T14:38:23.799Z" agent="Mozilla/5.0 (Windows NT 10.0; Win64; x64) AppleWebKit/537.36 (KHTML, like Gecko) Chrome/118.0.0.0 Safari/537.36" etag="ZxjCoMmw4YANkDqZZxM2" version="22.0.8" type="google">
  <diagram name="Page-1" id="7aIMYuHTMX1S-HnvlCWs">
    <mxGraphModel grid="1" page="1" gridSize="10" guides="1" tooltips="1" connect="1" arrows="1" fold="1" pageScale="1" pageWidth="827" pageHeight="1169" math="0" shadow="0">
      <root>
        <mxCell id="0" />
        <mxCell id="1" parent="0" />
        <mxCell id="0Bdln4vo-bALyRf50QNs-2" value="" style="shape=ext;double=1;rounded=0;whiteSpace=wrap;html=1;" vertex="1" parent="1">
          <mxGeometry y="500" width="1050" height="550" as="geometry" />
        </mxCell>
        <mxCell id="0Bdln4vo-bALyRf50QNs-12" value="" style="whiteSpace=wrap;html=1;aspect=fixed;" vertex="1" parent="1">
          <mxGeometry y="500" width="210" height="210" as="geometry" />
        </mxCell>
        <mxCell id="0Bdln4vo-bALyRf50QNs-21" value="" style="shape=mxgraph.cisco.computers_and_peripherals.sun_workstation;html=1;pointerEvents=1;dashed=0;fillColor=#036897;strokeColor=#ffffff;strokeWidth=2;verticalLabelPosition=bottom;verticalAlign=top;align=center;outlineConnect=0;" vertex="1" parent="1">
          <mxGeometry y="510" width="40" height="36" as="geometry" />
        </mxCell>
        <mxCell id="0Bdln4vo-bALyRf50QNs-30" value="" style="whiteSpace=wrap;html=1;aspect=fixed;" vertex="1" parent="1">
          <mxGeometry y="850" width="200" height="200" as="geometry" />
        </mxCell>
        <mxCell id="0Bdln4vo-bALyRf50QNs-31" value="" style="whiteSpace=wrap;html=1;aspect=fixed;" vertex="1" parent="1">
          <mxGeometry x="200" y="850" width="200" height="200" as="geometry" />
        </mxCell>
        <mxCell id="0Bdln4vo-bALyRf50QNs-32" value="" style="whiteSpace=wrap;html=1;aspect=fixed;" vertex="1" parent="1">
          <mxGeometry x="210" y="500" width="210" height="210" as="geometry" />
        </mxCell>
        <mxCell id="0Bdln4vo-bALyRf50QNs-33" value="" style="whiteSpace=wrap;html=1;aspect=fixed;" vertex="1" parent="1">
          <mxGeometry x="400" y="850" width="200" height="200" as="geometry" />
        </mxCell>
        <mxCell id="0Bdln4vo-bALyRf50QNs-34" value="" style="whiteSpace=wrap;html=1;aspect=fixed;" vertex="1" parent="1">
          <mxGeometry x="800" y="800" width="250" height="250" as="geometry" />
        </mxCell>
        <mxCell id="0Bdln4vo-bALyRf50QNs-35" value="" style="whiteSpace=wrap;html=1;aspect=fixed;" vertex="1" parent="1">
          <mxGeometry x="870" y="500" width="180" height="180" as="geometry" />
        </mxCell>
        <mxCell id="0Bdln4vo-bALyRf50QNs-36" value="" style="whiteSpace=wrap;html=1;aspect=fixed;" vertex="1" parent="1">
          <mxGeometry x="540" y="500" width="250" height="250" as="geometry" />
        </mxCell>
        <mxCell id="0Bdln4vo-bALyRf50QNs-37" value="" style="shape=mxgraph.cisco.computers_and_peripherals.sun_workstation;html=1;pointerEvents=1;dashed=0;fillColor=#036897;strokeColor=#ffffff;strokeWidth=2;verticalLabelPosition=bottom;verticalAlign=top;align=center;outlineConnect=0;" vertex="1" parent="1">
          <mxGeometry y="549" width="40" height="36" as="geometry" />
        </mxCell>
        <mxCell id="0Bdln4vo-bALyRf50QNs-38" value="" style="shape=mxgraph.cisco.computers_and_peripherals.sun_workstation;html=1;pointerEvents=1;dashed=0;fillColor=#036897;strokeColor=#ffffff;strokeWidth=2;verticalLabelPosition=bottom;verticalAlign=top;align=center;outlineConnect=0;" vertex="1" parent="1">
          <mxGeometry y="587" width="40" height="36" as="geometry" />
        </mxCell>
        <mxCell id="0Bdln4vo-bALyRf50QNs-40" value="" style="rounded=0;whiteSpace=wrap;html=1;" vertex="1" parent="1">
          <mxGeometry x="600" y="850" width="120" height="200" as="geometry" />
        </mxCell>
        <mxCell id="0Bdln4vo-bALyRf50QNs-41" value="" style="pointerEvents=1;shadow=0;dashed=0;html=1;strokeColor=none;fillColor=#4495D1;labelPosition=center;verticalLabelPosition=bottom;verticalAlign=top;align=center;outlineConnect=0;shape=mxgraph.veeam.laptop;" vertex="1" parent="1">
          <mxGeometry y="650" width="40" height="27" as="geometry" />
        </mxCell>
        <mxCell id="0Bdln4vo-bALyRf50QNs-42" value="" style="fontColor=#0066CC;verticalAlign=top;verticalLabelPosition=bottom;labelPosition=center;align=center;html=1;outlineConnect=0;fillColor=#CCCCCC;strokeColor=#6881B3;gradientColor=none;gradientDirection=north;strokeWidth=2;shape=mxgraph.networks.printer;" vertex="1" parent="1">
          <mxGeometry x="165.5" y="519.75" width="40" height="34" as="geometry" />
        </mxCell>
        <mxCell id="0Bdln4vo-bALyRf50QNs-159" value="" style="edgeStyle=entityRelationEdgeStyle;rounded=0;orthogonalLoop=1;jettySize=auto;html=1;" edge="1" parent="1">
          <mxGeometry relative="1" as="geometry">
            <mxPoint x="170" y="580" as="sourcePoint" />
            <mxPoint x="173.5" y="640" as="targetPoint" />
          </mxGeometry>
        </mxCell>
        <mxCell id="0Bdln4vo-bALyRf50QNs-166" value="" style="edgeStyle=entityRelationEdgeStyle;rounded=0;orthogonalLoop=1;jettySize=auto;html=1;" edge="1" parent="1" source="0Bdln4vo-bALyRf50QNs-43" target="0Bdln4vo-bALyRf50QNs-162">
          <mxGeometry relative="1" as="geometry" />
        </mxCell>
        <mxCell id="0Bdln4vo-bALyRf50QNs-43" value="" style="image;html=1;image=img/lib/clip_art/networking/Switch_128x128.png" vertex="1" parent="1">
          <mxGeometry x="160" y="560" width="50" height="40" as="geometry" />
        </mxCell>
        <mxCell id="0Bdln4vo-bALyRf50QNs-44" value="" style="shape=mxgraph.cisco.wireless.wireless_transport;html=1;pointerEvents=1;dashed=0;fillColor=#036897;strokeColor=#ffffff;strokeWidth=2;verticalLabelPosition=bottom;verticalAlign=top;align=center;outlineConnect=0;" vertex="1" parent="1">
          <mxGeometry x="163" y="980" width="37" height="23" as="geometry" />
        </mxCell>
        <mxCell id="0Bdln4vo-bALyRf50QNs-45" value="" style="verticalLabelPosition=bottom;html=1;verticalAlign=top;align=center;strokeColor=none;fillColor=#00BEF2;shape=mxgraph.azure.tablet;pointerEvents=1;" vertex="1" parent="1">
          <mxGeometry x="170" y="677" width="26" height="17" as="geometry" />
        </mxCell>
        <mxCell id="0Bdln4vo-bALyRf50QNs-48" value="" style="shape=mxgraph.cisco.computers_and_peripherals.sun_workstation;html=1;pointerEvents=1;dashed=0;fillColor=#036897;strokeColor=#ffffff;strokeWidth=2;verticalLabelPosition=bottom;verticalAlign=top;align=center;outlineConnect=0;" vertex="1" parent="1">
          <mxGeometry y="860" width="40" height="36" as="geometry" />
        </mxCell>
        <mxCell id="0Bdln4vo-bALyRf50QNs-49" value="" style="shape=mxgraph.cisco.computers_and_peripherals.sun_workstation;html=1;pointerEvents=1;dashed=0;fillColor=#036897;strokeColor=#ffffff;strokeWidth=2;verticalLabelPosition=bottom;verticalAlign=top;align=center;outlineConnect=0;" vertex="1" parent="1">
          <mxGeometry y="900" width="40" height="36" as="geometry" />
        </mxCell>
        <mxCell id="0Bdln4vo-bALyRf50QNs-50" value="" style="shape=mxgraph.cisco.computers_and_peripherals.sun_workstation;html=1;pointerEvents=1;dashed=0;fillColor=#036897;strokeColor=#ffffff;strokeWidth=2;verticalLabelPosition=bottom;verticalAlign=top;align=center;outlineConnect=0;" vertex="1" parent="1">
          <mxGeometry y="940" width="40" height="36" as="geometry" />
        </mxCell>
        <mxCell id="0Bdln4vo-bALyRf50QNs-51" value="" style="pointerEvents=1;shadow=0;dashed=0;html=1;strokeColor=none;fillColor=#4495D1;labelPosition=center;verticalLabelPosition=bottom;verticalAlign=top;align=center;outlineConnect=0;shape=mxgraph.veeam.laptop;" vertex="1" parent="1">
          <mxGeometry y="1003" width="40" height="27" as="geometry" />
        </mxCell>
        <mxCell id="0Bdln4vo-bALyRf50QNs-52" value="" style="fontColor=#0066CC;verticalAlign=top;verticalLabelPosition=bottom;labelPosition=center;align=center;html=1;outlineConnect=0;fillColor=#CCCCCC;strokeColor=#6881B3;gradientColor=none;gradientDirection=north;strokeWidth=2;shape=mxgraph.networks.printer;" vertex="1" parent="1">
          <mxGeometry x="156" y="872" width="40" height="34" as="geometry" />
        </mxCell>
        <mxCell id="0Bdln4vo-bALyRf50QNs-167" style="edgeStyle=entityRelationEdgeStyle;rounded=0;orthogonalLoop=1;jettySize=auto;html=1;" edge="1" parent="1" source="0Bdln4vo-bALyRf50QNs-53" target="0Bdln4vo-bALyRf50QNs-50">
          <mxGeometry relative="1" as="geometry" />
        </mxCell>
        <mxCell id="0Bdln4vo-bALyRf50QNs-173" value="" style="edgeStyle=entityRelationEdgeStyle;rounded=0;orthogonalLoop=1;jettySize=auto;html=1;exitX=0.5;exitY=1;exitDx=0;exitDy=0;" edge="1" parent="1">
          <mxGeometry relative="1" as="geometry">
            <mxPoint x="165" y="932" as="sourcePoint" />
            <mxPoint x="161.5" y="992.5" as="targetPoint" />
          </mxGeometry>
        </mxCell>
        <mxCell id="0Bdln4vo-bALyRf50QNs-53" value="" style="image;html=1;image=img/lib/clip_art/networking/Switch_128x128.png" vertex="1" parent="1">
          <mxGeometry x="150" y="913" width="50" height="40" as="geometry" />
        </mxCell>
        <mxCell id="0Bdln4vo-bALyRf50QNs-57" value="" style="verticalLabelPosition=bottom;html=1;verticalAlign=top;align=center;strokeColor=none;fillColor=#00BEF2;shape=mxgraph.azure.tablet;pointerEvents=1;" vertex="1" parent="1">
          <mxGeometry x="165.5" y="1023" width="26" height="17" as="geometry" />
        </mxCell>
        <mxCell id="0Bdln4vo-bALyRf50QNs-58" value="" style="shape=mxgraph.cisco.computers_and_peripherals.sun_workstation;html=1;pointerEvents=1;dashed=0;fillColor=#036897;strokeColor=#ffffff;strokeWidth=2;verticalLabelPosition=bottom;verticalAlign=top;align=center;outlineConnect=0;" vertex="1" parent="1">
          <mxGeometry x="210" y="508" width="40" height="36" as="geometry" />
        </mxCell>
        <mxCell id="0Bdln4vo-bALyRf50QNs-59" value="" style="shape=mxgraph.cisco.computers_and_peripherals.sun_workstation;html=1;pointerEvents=1;dashed=0;fillColor=#036897;strokeColor=#ffffff;strokeWidth=2;verticalLabelPosition=bottom;verticalAlign=top;align=center;outlineConnect=0;" vertex="1" parent="1">
          <mxGeometry x="210" y="549" width="40" height="36" as="geometry" />
        </mxCell>
        <mxCell id="0Bdln4vo-bALyRf50QNs-60" value="" style="shape=mxgraph.cisco.computers_and_peripherals.sun_workstation;html=1;pointerEvents=1;dashed=0;fillColor=#036897;strokeColor=#ffffff;strokeWidth=2;verticalLabelPosition=bottom;verticalAlign=top;align=center;outlineConnect=0;" vertex="1" parent="1">
          <mxGeometry x="210" y="587" width="40" height="36" as="geometry" />
        </mxCell>
        <mxCell id="0Bdln4vo-bALyRf50QNs-229" value="" style="edgeStyle=entityRelationEdgeStyle;rounded=0;orthogonalLoop=1;jettySize=auto;html=1;" edge="1" parent="1" source="0Bdln4vo-bALyRf50QNs-61" target="0Bdln4vo-bALyRf50QNs-60">
          <mxGeometry relative="1" as="geometry" />
        </mxCell>
        <mxCell id="0Bdln4vo-bALyRf50QNs-61" value="" style="pointerEvents=1;shadow=0;dashed=0;html=1;strokeColor=none;fillColor=#4495D1;labelPosition=center;verticalLabelPosition=bottom;verticalAlign=top;align=center;outlineConnect=0;shape=mxgraph.veeam.laptop;" vertex="1" parent="1">
          <mxGeometry x="210" y="660" width="40" height="27" as="geometry" />
        </mxCell>
        <mxCell id="0Bdln4vo-bALyRf50QNs-62" value="" style="fontColor=#0066CC;verticalAlign=top;verticalLabelPosition=bottom;labelPosition=center;align=center;html=1;outlineConnect=0;fillColor=#CCCCCC;strokeColor=#6881B3;gradientColor=none;gradientDirection=north;strokeWidth=2;shape=mxgraph.networks.printer;" vertex="1" parent="1">
          <mxGeometry x="377" y="527" width="40" height="34" as="geometry" />
        </mxCell>
        <mxCell id="0Bdln4vo-bALyRf50QNs-174" style="edgeStyle=entityRelationEdgeStyle;rounded=0;orthogonalLoop=1;jettySize=auto;html=1;" edge="1" parent="1" source="0Bdln4vo-bALyRf50QNs-63" target="0Bdln4vo-bALyRf50QNs-58">
          <mxGeometry relative="1" as="geometry" />
        </mxCell>
        <mxCell id="0Bdln4vo-bALyRf50QNs-63" value="" style="image;html=1;image=img/lib/clip_art/networking/Switch_128x128.png" vertex="1" parent="1">
          <mxGeometry x="367.5" y="573.44" width="50" height="40" as="geometry" />
        </mxCell>
        <mxCell id="0Bdln4vo-bALyRf50QNs-64" value="" style="shape=mxgraph.cisco.wireless.wireless_transport;html=1;pointerEvents=1;dashed=0;fillColor=#036897;strokeColor=#ffffff;strokeWidth=2;verticalLabelPosition=bottom;verticalAlign=top;align=center;outlineConnect=0;" vertex="1" parent="1">
          <mxGeometry x="377" y="644" width="37" height="23" as="geometry" />
        </mxCell>
        <mxCell id="0Bdln4vo-bALyRf50QNs-65" value="" style="verticalLabelPosition=bottom;html=1;verticalAlign=top;align=center;strokeColor=none;fillColor=#00BEF2;shape=mxgraph.azure.tablet;pointerEvents=1;" vertex="1" parent="1">
          <mxGeometry x="388" y="687" width="26" height="17" as="geometry" />
        </mxCell>
        <mxCell id="0Bdln4vo-bALyRf50QNs-66" value="" style="shape=mxgraph.cisco.computers_and_peripherals.sun_workstation;html=1;pointerEvents=1;dashed=0;fillColor=#036897;strokeColor=#ffffff;strokeWidth=2;verticalLabelPosition=bottom;verticalAlign=top;align=center;outlineConnect=0;" vertex="1" parent="1">
          <mxGeometry x="203.5" y="860" width="40" height="36" as="geometry" />
        </mxCell>
        <mxCell id="0Bdln4vo-bALyRf50QNs-67" value="" style="shape=mxgraph.cisco.computers_and_peripherals.sun_workstation;html=1;pointerEvents=1;dashed=0;fillColor=#036897;strokeColor=#ffffff;strokeWidth=2;verticalLabelPosition=bottom;verticalAlign=top;align=center;outlineConnect=0;" vertex="1" parent="1">
          <mxGeometry x="203" y="896" width="40" height="36" as="geometry" />
        </mxCell>
        <mxCell id="0Bdln4vo-bALyRf50QNs-68" value="" style="shape=mxgraph.cisco.computers_and_peripherals.sun_workstation;html=1;pointerEvents=1;dashed=0;fillColor=#036897;strokeColor=#ffffff;strokeWidth=2;verticalLabelPosition=bottom;verticalAlign=top;align=center;outlineConnect=0;" vertex="1" parent="1">
          <mxGeometry x="200" y="932" width="40" height="36" as="geometry" />
        </mxCell>
        <mxCell id="0Bdln4vo-bALyRf50QNs-69" value="" style="pointerEvents=1;shadow=0;dashed=0;html=1;strokeColor=none;fillColor=#4495D1;labelPosition=center;verticalLabelPosition=bottom;verticalAlign=top;align=center;outlineConnect=0;shape=mxgraph.veeam.laptop;" vertex="1" parent="1">
          <mxGeometry x="210" y="1001" width="40" height="27" as="geometry" />
        </mxCell>
        <mxCell id="0Bdln4vo-bALyRf50QNs-70" value="" style="fontColor=#0066CC;verticalAlign=top;verticalLabelPosition=bottom;labelPosition=center;align=center;html=1;outlineConnect=0;fillColor=#CCCCCC;strokeColor=#6881B3;gradientColor=none;gradientDirection=north;strokeWidth=2;shape=mxgraph.networks.printer;" vertex="1" parent="1">
          <mxGeometry x="357" y="879" width="40" height="34" as="geometry" />
        </mxCell>
        <mxCell id="0Bdln4vo-bALyRf50QNs-217" style="edgeStyle=entityRelationEdgeStyle;rounded=0;orthogonalLoop=1;jettySize=auto;html=1;" edge="1" parent="1" source="0Bdln4vo-bALyRf50QNs-71" target="0Bdln4vo-bALyRf50QNs-67">
          <mxGeometry relative="1" as="geometry" />
        </mxCell>
        <mxCell id="0Bdln4vo-bALyRf50QNs-71" value="" style="image;html=1;image=img/lib/clip_art/networking/Switch_128x128.png" vertex="1" parent="1">
          <mxGeometry x="350" y="920" width="50" height="40" as="geometry" />
        </mxCell>
        <mxCell id="0Bdln4vo-bALyRf50QNs-72" value="" style="shape=mxgraph.cisco.wireless.wireless_transport;html=1;pointerEvents=1;dashed=0;fillColor=#036897;strokeColor=#ffffff;strokeWidth=2;verticalLabelPosition=bottom;verticalAlign=top;align=center;outlineConnect=0;" vertex="1" parent="1">
          <mxGeometry x="360" y="976" width="37" height="23" as="geometry" />
        </mxCell>
        <mxCell id="0Bdln4vo-bALyRf50QNs-73" value="" style="verticalLabelPosition=bottom;html=1;verticalAlign=top;align=center;strokeColor=none;fillColor=#00BEF2;shape=mxgraph.azure.tablet;pointerEvents=1;" vertex="1" parent="1">
          <mxGeometry x="367.5" y="1017" width="26" height="17" as="geometry" />
        </mxCell>
        <mxCell id="0Bdln4vo-bALyRf50QNs-74" value="" style="shape=mxgraph.cisco.computers_and_peripherals.sun_workstation;html=1;pointerEvents=1;dashed=0;fillColor=#036897;strokeColor=#ffffff;strokeWidth=2;verticalLabelPosition=bottom;verticalAlign=top;align=center;outlineConnect=0;" vertex="1" parent="1">
          <mxGeometry x="400" y="858" width="40" height="36" as="geometry" />
        </mxCell>
        <mxCell id="0Bdln4vo-bALyRf50QNs-76" value="" style="shape=mxgraph.cisco.computers_and_peripherals.sun_workstation;html=1;pointerEvents=1;dashed=0;fillColor=#036897;strokeColor=#ffffff;strokeWidth=2;verticalLabelPosition=bottom;verticalAlign=top;align=center;outlineConnect=0;" vertex="1" parent="1">
          <mxGeometry x="400" y="896" width="40" height="36" as="geometry" />
        </mxCell>
        <mxCell id="0Bdln4vo-bALyRf50QNs-77" value="" style="shape=mxgraph.cisco.computers_and_peripherals.sun_workstation;html=1;pointerEvents=1;dashed=0;fillColor=#036897;strokeColor=#ffffff;strokeWidth=2;verticalLabelPosition=bottom;verticalAlign=top;align=center;outlineConnect=0;" vertex="1" parent="1">
          <mxGeometry x="400" y="932" width="40" height="36" as="geometry" />
        </mxCell>
        <mxCell id="0Bdln4vo-bALyRf50QNs-78" value="" style="pointerEvents=1;shadow=0;dashed=0;html=1;strokeColor=none;fillColor=#4495D1;labelPosition=center;verticalLabelPosition=bottom;verticalAlign=top;align=center;outlineConnect=0;shape=mxgraph.veeam.laptop;" vertex="1" parent="1">
          <mxGeometry x="400" y="1007" width="40" height="27" as="geometry" />
        </mxCell>
        <mxCell id="0Bdln4vo-bALyRf50QNs-79" value="" style="fontColor=#0066CC;verticalAlign=top;verticalLabelPosition=bottom;labelPosition=center;align=center;html=1;outlineConnect=0;fillColor=#CCCCCC;strokeColor=#6881B3;gradientColor=none;gradientDirection=north;strokeWidth=2;shape=mxgraph.networks.printer;" vertex="1" parent="1">
          <mxGeometry x="560" y="871" width="40" height="34" as="geometry" />
        </mxCell>
        <mxCell id="0Bdln4vo-bALyRf50QNs-203" style="edgeStyle=entityRelationEdgeStyle;rounded=0;orthogonalLoop=1;jettySize=auto;html=1;" edge="1" parent="1" source="0Bdln4vo-bALyRf50QNs-80" target="0Bdln4vo-bALyRf50QNs-81">
          <mxGeometry relative="1" as="geometry" />
        </mxCell>
        <mxCell id="0Bdln4vo-bALyRf50QNs-204" style="edgeStyle=entityRelationEdgeStyle;rounded=0;orthogonalLoop=1;jettySize=auto;html=1;" edge="1" parent="1" source="0Bdln4vo-bALyRf50QNs-80" target="0Bdln4vo-bALyRf50QNs-81">
          <mxGeometry relative="1" as="geometry" />
        </mxCell>
        <mxCell id="0Bdln4vo-bALyRf50QNs-205" style="edgeStyle=entityRelationEdgeStyle;rounded=0;orthogonalLoop=1;jettySize=auto;html=1;" edge="1" parent="1" source="0Bdln4vo-bALyRf50QNs-80" target="0Bdln4vo-bALyRf50QNs-81">
          <mxGeometry relative="1" as="geometry" />
        </mxCell>
        <mxCell id="0Bdln4vo-bALyRf50QNs-206" style="edgeStyle=entityRelationEdgeStyle;rounded=0;orthogonalLoop=1;jettySize=auto;html=1;" edge="1" parent="1" source="0Bdln4vo-bALyRf50QNs-80" target="0Bdln4vo-bALyRf50QNs-81">
          <mxGeometry relative="1" as="geometry" />
        </mxCell>
        <mxCell id="0Bdln4vo-bALyRf50QNs-80" value="" style="image;html=1;image=img/lib/clip_art/networking/Switch_128x128.png" vertex="1" parent="1">
          <mxGeometry x="548.5" y="920" width="50" height="40" as="geometry" />
        </mxCell>
        <mxCell id="0Bdln4vo-bALyRf50QNs-81" value="" style="shape=mxgraph.cisco.wireless.wireless_transport;html=1;pointerEvents=1;dashed=0;fillColor=#036897;strokeColor=#ffffff;strokeWidth=2;verticalLabelPosition=bottom;verticalAlign=top;align=center;outlineConnect=0;" vertex="1" parent="1">
          <mxGeometry x="563" y="992" width="37" height="23" as="geometry" />
        </mxCell>
        <mxCell id="0Bdln4vo-bALyRf50QNs-82" value="" style="verticalLabelPosition=bottom;html=1;verticalAlign=top;align=center;strokeColor=none;fillColor=#00BEF2;shape=mxgraph.azure.tablet;pointerEvents=1;" vertex="1" parent="1">
          <mxGeometry x="568.5" y="1030" width="26" height="17" as="geometry" />
        </mxCell>
        <mxCell id="0Bdln4vo-bALyRf50QNs-84" value="" style="shape=mxgraph.signs.transportation.car_3;html=1;pointerEvents=1;fillColor=#000000;strokeColor=none;verticalLabelPosition=bottom;verticalAlign=top;align=center;" vertex="1" parent="1">
          <mxGeometry x="810" y="820" width="70" height="30" as="geometry" />
        </mxCell>
        <mxCell id="0Bdln4vo-bALyRf50QNs-85" value="" style="shape=mxgraph.signs.transportation.car_2;html=1;pointerEvents=1;fillColor=#000000;strokeColor=none;verticalLabelPosition=bottom;verticalAlign=top;align=center;" vertex="1" parent="1">
          <mxGeometry x="810" y="872" width="100" height="33" as="geometry" />
        </mxCell>
        <mxCell id="0Bdln4vo-bALyRf50QNs-86" value="" style="shape=mxgraph.signs.transportation.car_2;html=1;pointerEvents=1;fillColor=#000000;strokeColor=none;verticalLabelPosition=bottom;verticalAlign=top;align=center;" vertex="1" parent="1">
          <mxGeometry x="810" y="920" width="100" height="33" as="geometry" />
        </mxCell>
        <mxCell id="0Bdln4vo-bALyRf50QNs-87" style="edgeStyle=orthogonalEdgeStyle;rounded=0;orthogonalLoop=1;jettySize=auto;html=1;exitX=0.5;exitY=0.725;exitDx=0;exitDy=0;exitPerimeter=0;entryX=0.774;entryY=0.6;entryDx=0;entryDy=0;entryPerimeter=0;" edge="1" parent="1" source="0Bdln4vo-bALyRf50QNs-85" target="0Bdln4vo-bALyRf50QNs-85">
          <mxGeometry relative="1" as="geometry" />
        </mxCell>
        <mxCell id="0Bdln4vo-bALyRf50QNs-89" value="" style="shape=mxgraph.signs.transportation.car_3;html=1;pointerEvents=1;fillColor=#000000;strokeColor=none;verticalLabelPosition=bottom;verticalAlign=top;align=center;" vertex="1" parent="1">
          <mxGeometry x="810" y="968" width="70" height="33" as="geometry" />
        </mxCell>
        <mxCell id="0Bdln4vo-bALyRf50QNs-93" value="" style="verticalLabelPosition=bottom;html=1;verticalAlign=top;align=center;shape=mxgraph.floorplan.doorLeft;aspect=fixed;rotation=-180;" vertex="1" parent="1">
          <mxGeometry x="68.83" y="786.87" width="59.41" height="63.13" as="geometry" />
        </mxCell>
        <mxCell id="0Bdln4vo-bALyRf50QNs-94" value="" style="verticalLabelPosition=bottom;html=1;verticalAlign=top;align=center;shape=mxgraph.floorplan.doorRight;aspect=fixed;" vertex="1" parent="1">
          <mxGeometry x="71.77" y="710" width="56.47" height="60" as="geometry" />
        </mxCell>
        <mxCell id="0Bdln4vo-bALyRf50QNs-95" value="" style="verticalLabelPosition=bottom;html=1;verticalAlign=top;align=center;shape=mxgraph.floorplan.doorLeft;aspect=fixed;rotation=-180;" vertex="1" parent="1">
          <mxGeometry x="270.3" y="786.87" width="59.41" height="63.13" as="geometry" />
        </mxCell>
        <mxCell id="0Bdln4vo-bALyRf50QNs-96" value="" style="verticalLabelPosition=bottom;html=1;verticalAlign=top;align=center;shape=mxgraph.floorplan.doorLeft;aspect=fixed;rotation=-180;" vertex="1" parent="1">
          <mxGeometry x="470.29" y="786.87" width="59.41" height="63.13" as="geometry" />
        </mxCell>
        <mxCell id="0Bdln4vo-bALyRf50QNs-97" value="" style="verticalLabelPosition=bottom;html=1;verticalAlign=top;align=center;shape=mxgraph.floorplan.doorRight;aspect=fixed;" vertex="1" parent="1">
          <mxGeometry x="273.24" y="710" width="56.47" height="60" as="geometry" />
        </mxCell>
        <mxCell id="0Bdln4vo-bALyRf50QNs-99" value="" style="verticalLabelPosition=bottom;html=1;verticalAlign=top;align=center;shape=mxgraph.floorplan.doorRight;aspect=fixed;" vertex="1" parent="1">
          <mxGeometry x="880" y="680" width="56.47" height="60" as="geometry" />
        </mxCell>
        <mxCell id="0Bdln4vo-bALyRf50QNs-100" value="" style="verticalLabelPosition=bottom;html=1;verticalAlign=top;align=center;shape=mxgraph.floorplan.doorLeft;aspect=fixed;rotation=-180;" vertex="1" parent="1">
          <mxGeometry x="990.59" y="736.87" width="59.41" height="63.13" as="geometry" />
        </mxCell>
        <mxCell id="0Bdln4vo-bALyRf50QNs-101" value="" style="verticalLabelPosition=bottom;html=1;verticalAlign=top;align=center;shape=mxgraph.floorplan.doorRight;aspect=fixed;rotation=90;" vertex="1" parent="1">
          <mxGeometry x="483.53" y="631.5" width="56.47" height="60" as="geometry" />
        </mxCell>
        <mxCell id="0Bdln4vo-bALyRf50QNs-105" value="" style="verticalLabelPosition=bottom;html=1;verticalAlign=top;align=center;shape=mxgraph.floorplan.doorLeft;aspect=fixed;rotation=90;" vertex="1" parent="1">
          <mxGeometry x="480.59000000000003" y="573.44" width="59.41" height="63.13" as="geometry" />
        </mxCell>
        <mxCell id="0Bdln4vo-bALyRf50QNs-106" value="" style="shape=mxgraph.cisco.computers_and_peripherals.sun_workstation;html=1;pointerEvents=1;dashed=0;fillColor=#036897;strokeColor=#ffffff;strokeWidth=2;verticalLabelPosition=bottom;verticalAlign=top;align=center;outlineConnect=0;" vertex="1" parent="1">
          <mxGeometry x="700" y="710" width="40" height="36" as="geometry" />
        </mxCell>
        <mxCell id="0Bdln4vo-bALyRf50QNs-107" value="" style="shape=mxgraph.cisco.computers_and_peripherals.sun_workstation;html=1;pointerEvents=1;dashed=0;fillColor=#036897;strokeColor=#ffffff;strokeWidth=2;verticalLabelPosition=bottom;verticalAlign=top;align=center;outlineConnect=0;" vertex="1" parent="1">
          <mxGeometry x="660" y="710" width="40" height="36" as="geometry" />
        </mxCell>
        <mxCell id="0Bdln4vo-bALyRf50QNs-108" value="" style="shape=mxgraph.cisco.computers_and_peripherals.sun_workstation;html=1;pointerEvents=1;dashed=0;fillColor=#036897;strokeColor=#ffffff;strokeWidth=2;verticalLabelPosition=bottom;verticalAlign=top;align=center;outlineConnect=0;" vertex="1" parent="1">
          <mxGeometry x="620" y="710" width="40" height="36" as="geometry" />
        </mxCell>
        <mxCell id="0Bdln4vo-bALyRf50QNs-109" value="" style="shape=mxgraph.cisco.computers_and_peripherals.sun_workstation;html=1;pointerEvents=1;dashed=0;fillColor=#036897;strokeColor=#ffffff;strokeWidth=2;verticalLabelPosition=bottom;verticalAlign=top;align=center;outlineConnect=0;" vertex="1" parent="1">
          <mxGeometry x="580" y="710" width="40" height="36" as="geometry" />
        </mxCell>
        <mxCell id="0Bdln4vo-bALyRf50QNs-110" value="" style="shape=mxgraph.cisco.computers_and_peripherals.sun_workstation;html=1;pointerEvents=1;dashed=0;fillColor=#036897;strokeColor=#ffffff;strokeWidth=2;verticalLabelPosition=bottom;verticalAlign=top;align=center;outlineConnect=0;" vertex="1" parent="1">
          <mxGeometry x="540" y="710" width="40" height="36" as="geometry" />
        </mxCell>
        <mxCell id="0Bdln4vo-bALyRf50QNs-112" value="" style="fontColor=#0066CC;verticalAlign=top;verticalLabelPosition=bottom;labelPosition=center;align=center;html=1;outlineConnect=0;fillColor=#CCCCCC;strokeColor=#6881B3;gradientColor=none;gradientDirection=north;strokeWidth=2;shape=mxgraph.networks.printer;" vertex="1" parent="1">
          <mxGeometry x="740" y="710" width="40" height="34" as="geometry" />
        </mxCell>
        <mxCell id="0Bdln4vo-bALyRf50QNs-113" value="" style="pointerEvents=1;shadow=0;dashed=0;html=1;strokeColor=none;fillColor=#4495D1;labelPosition=center;verticalLabelPosition=bottom;verticalAlign=top;align=center;outlineConnect=0;shape=mxgraph.veeam.laptop;" vertex="1" parent="1">
          <mxGeometry x="750" y="500" width="40" height="27" as="geometry" />
        </mxCell>
        <mxCell id="0Bdln4vo-bALyRf50QNs-114" value="" style="pointerEvents=1;shadow=0;dashed=0;html=1;strokeColor=none;fillColor=#4495D1;labelPosition=center;verticalLabelPosition=bottom;verticalAlign=top;align=center;outlineConnect=0;shape=mxgraph.veeam.laptop;" vertex="1" parent="1">
          <mxGeometry x="750" y="533" width="40" height="27" as="geometry" />
        </mxCell>
        <mxCell id="0Bdln4vo-bALyRf50QNs-115" value="" style="pointerEvents=1;shadow=0;dashed=0;html=1;strokeColor=none;fillColor=#4495D1;labelPosition=center;verticalLabelPosition=bottom;verticalAlign=top;align=center;outlineConnect=0;shape=mxgraph.veeam.laptop;" vertex="1" parent="1">
          <mxGeometry x="750" y="566.5" width="40" height="27" as="geometry" />
        </mxCell>
        <mxCell id="0Bdln4vo-bALyRf50QNs-116" value="" style="pointerEvents=1;shadow=0;dashed=0;html=1;strokeColor=none;fillColor=#4495D1;labelPosition=center;verticalLabelPosition=bottom;verticalAlign=top;align=center;outlineConnect=0;shape=mxgraph.veeam.laptop;" vertex="1" parent="1">
          <mxGeometry x="750" y="600" width="40" height="27" as="geometry" />
        </mxCell>
        <mxCell id="0Bdln4vo-bALyRf50QNs-117" value="v" style="verticalLabelPosition=bottom;html=1;verticalAlign=top;align=center;shape=mxgraph.floorplan.doorLeft;aspect=fixed;rotation=-90;" vertex="1" parent="1">
          <mxGeometry x="720.5899999999999" y="856.87" width="59.41" height="63.13" as="geometry" />
        </mxCell>
        <mxCell id="0Bdln4vo-bALyRf50QNs-118" value="v" style="verticalLabelPosition=bottom;html=1;verticalAlign=top;align=center;shape=mxgraph.floorplan.doorLeft;aspect=fixed;rotation=-90;" vertex="1" parent="1">
          <mxGeometry x="720.5899999999999" y="979.9999999999999" width="59.41" height="63.13" as="geometry" />
        </mxCell>
        <mxCell id="0Bdln4vo-bALyRf50QNs-120" value="" style="shape=image;html=1;verticalAlign=top;verticalLabelPosition=bottom;labelBackgroundColor=#ffffff;imageAspect=0;aspect=fixed;image=https://cdn4.iconfinder.com/data/icons/aiga-symbol-signs/612/aiga_toilet_women_bg-128.png" vertex="1" parent="1">
          <mxGeometry x="636.5" y="976" width="47" height="47" as="geometry" />
        </mxCell>
        <mxCell id="0Bdln4vo-bALyRf50QNs-121" value="" style="shape=image;html=1;verticalAlign=top;verticalLabelPosition=bottom;labelBackgroundColor=#ffffff;imageAspect=0;aspect=fixed;image=https://cdn4.iconfinder.com/data/icons/aiga-symbol-signs/612/aiga_toilet_men_bg-128.png" vertex="1" parent="1">
          <mxGeometry x="635.5" y="872" width="48" height="48" as="geometry" />
        </mxCell>
        <mxCell id="0Bdln4vo-bALyRf50QNs-122" value="" style="verticalLabelPosition=bottom;html=1;verticalAlign=top;align=center;strokeColor=none;fillColor=#00BEF2;shape=mxgraph.azure.tablet;pointerEvents=1;" vertex="1" parent="1">
          <mxGeometry x="757" y="631.5" width="26" height="17" as="geometry" />
        </mxCell>
        <mxCell id="0Bdln4vo-bALyRf50QNs-123" value="" style="html=1;verticalLabelPosition=bottom;align=center;labelBackgroundColor=#ffffff;verticalAlign=top;strokeWidth=2;strokeColor=#0080F0;shadow=0;dashed=0;shape=mxgraph.ios7.icons.smartphone;" vertex="1" parent="1">
          <mxGeometry x="770" y="657" width="13" height="23" as="geometry" />
        </mxCell>
        <mxCell id="0Bdln4vo-bALyRf50QNs-124" value="" style="html=1;verticalLabelPosition=bottom;align=center;labelBackgroundColor=#ffffff;verticalAlign=top;strokeWidth=2;strokeColor=#0080F0;shadow=0;dashed=0;shape=mxgraph.ios7.icons.smartphone;" vertex="1" parent="1">
          <mxGeometry x="770" y="687" width="13" height="23" as="geometry" />
        </mxCell>
        <mxCell id="0Bdln4vo-bALyRf50QNs-193" style="edgeStyle=entityRelationEdgeStyle;rounded=0;orthogonalLoop=1;jettySize=auto;html=1;" edge="1" parent="1" source="0Bdln4vo-bALyRf50QNs-125" target="0Bdln4vo-bALyRf50QNs-113">
          <mxGeometry relative="1" as="geometry" />
        </mxCell>
        <mxCell id="0Bdln4vo-bALyRf50QNs-194" style="edgeStyle=entityRelationEdgeStyle;rounded=0;orthogonalLoop=1;jettySize=auto;html=1;" edge="1" parent="1" source="0Bdln4vo-bALyRf50QNs-125" target="0Bdln4vo-bALyRf50QNs-114">
          <mxGeometry relative="1" as="geometry" />
        </mxCell>
        <mxCell id="0Bdln4vo-bALyRf50QNs-195" style="edgeStyle=entityRelationEdgeStyle;rounded=0;orthogonalLoop=1;jettySize=auto;html=1;" edge="1" parent="1" source="0Bdln4vo-bALyRf50QNs-125">
          <mxGeometry relative="1" as="geometry">
            <mxPoint x="760" y="580" as="targetPoint" />
          </mxGeometry>
        </mxCell>
        <mxCell id="0Bdln4vo-bALyRf50QNs-196" style="edgeStyle=entityRelationEdgeStyle;rounded=0;orthogonalLoop=1;jettySize=auto;html=1;" edge="1" parent="1" source="0Bdln4vo-bALyRf50QNs-125" target="0Bdln4vo-bALyRf50QNs-116">
          <mxGeometry relative="1" as="geometry" />
        </mxCell>
        <mxCell id="0Bdln4vo-bALyRf50QNs-198" style="edgeStyle=entityRelationEdgeStyle;rounded=0;orthogonalLoop=1;jettySize=auto;html=1;" edge="1" parent="1" source="0Bdln4vo-bALyRf50QNs-125" target="0Bdln4vo-bALyRf50QNs-126">
          <mxGeometry relative="1" as="geometry" />
        </mxCell>
        <mxCell id="0Bdln4vo-bALyRf50QNs-125" value="" style="image;html=1;image=img/lib/clip_art/networking/Switch_128x128.png" vertex="1" parent="1">
          <mxGeometry x="555" y="500" width="50" height="40" as="geometry" />
        </mxCell>
        <mxCell id="0Bdln4vo-bALyRf50QNs-126" value="" style="shape=mxgraph.cisco.wireless.wireless_transport;html=1;pointerEvents=1;dashed=0;fillColor=#036897;strokeColor=#ffffff;strokeWidth=2;verticalLabelPosition=bottom;verticalAlign=top;align=center;outlineConnect=0;" vertex="1" parent="1">
          <mxGeometry x="548.5" y="540" width="37" height="23" as="geometry" />
        </mxCell>
        <mxCell id="0Bdln4vo-bALyRf50QNs-180" style="edgeStyle=entityRelationEdgeStyle;rounded=0;orthogonalLoop=1;jettySize=auto;html=1;" edge="1" parent="1" source="0Bdln4vo-bALyRf50QNs-127" target="0Bdln4vo-bALyRf50QNs-43">
          <mxGeometry relative="1" as="geometry" />
        </mxCell>
        <mxCell id="0Bdln4vo-bALyRf50QNs-181" style="edgeStyle=entityRelationEdgeStyle;rounded=0;orthogonalLoop=1;jettySize=auto;html=1;entryX=1;entryY=0.5;entryDx=0;entryDy=0;" edge="1" parent="1" source="0Bdln4vo-bALyRf50QNs-127" target="0Bdln4vo-bALyRf50QNs-63">
          <mxGeometry relative="1" as="geometry" />
        </mxCell>
        <mxCell id="0Bdln4vo-bALyRf50QNs-182" style="edgeStyle=entityRelationEdgeStyle;rounded=0;orthogonalLoop=1;jettySize=auto;html=1;" edge="1" parent="1" source="0Bdln4vo-bALyRf50QNs-127" target="0Bdln4vo-bALyRf50QNs-125">
          <mxGeometry relative="1" as="geometry">
            <mxPoint x="580" y="540" as="targetPoint" />
            <Array as="points">
              <mxPoint x="580" y="540" />
              <mxPoint x="560" y="530" />
            </Array>
          </mxGeometry>
        </mxCell>
        <mxCell id="0Bdln4vo-bALyRf50QNs-183" style="edgeStyle=entityRelationEdgeStyle;rounded=0;orthogonalLoop=1;jettySize=auto;html=1;" edge="1" parent="1" source="0Bdln4vo-bALyRf50QNs-127" target="0Bdln4vo-bALyRf50QNs-80">
          <mxGeometry relative="1" as="geometry" />
        </mxCell>
        <mxCell id="0Bdln4vo-bALyRf50QNs-127" value="" style="image;html=1;image=img/lib/clip_art/networking/Switch_128x128.png" vertex="1" parent="1">
          <mxGeometry x="996.76" y="553.75" width="50" height="40" as="geometry" />
        </mxCell>
        <mxCell id="0Bdln4vo-bALyRf50QNs-128" value="" style="image;html=1;image=img/lib/clip_art/computers/Server_Rack_128x128.png" vertex="1" parent="1">
          <mxGeometry x="993.53" y="502.25" width="56.47" height="51.5" as="geometry" />
        </mxCell>
        <mxCell id="0Bdln4vo-bALyRf50QNs-191" style="edgeStyle=entityRelationEdgeStyle;rounded=0;orthogonalLoop=1;jettySize=auto;html=1;entryX=1;entryY=0.5;entryDx=0;entryDy=0;" edge="1" parent="1" source="0Bdln4vo-bALyRf50QNs-129" target="0Bdln4vo-bALyRf50QNs-127">
          <mxGeometry relative="1" as="geometry" />
        </mxCell>
        <mxCell id="0Bdln4vo-bALyRf50QNs-129" value="" style="image;html=1;image=img/lib/clip_art/networking/Router_128x128.png" vertex="1" parent="1">
          <mxGeometry x="991.91" y="598.57" width="56.76" height="41.43" as="geometry" />
        </mxCell>
        <mxCell id="0Bdln4vo-bALyRf50QNs-151" style="edgeStyle=entityRelationEdgeStyle;rounded=0;orthogonalLoop=1;jettySize=auto;html=1;entryX=0.785;entryY=0.5;entryDx=0;entryDy=0;entryPerimeter=0;" edge="1" parent="1" source="0Bdln4vo-bALyRf50QNs-43" target="0Bdln4vo-bALyRf50QNs-21">
          <mxGeometry relative="1" as="geometry" />
        </mxCell>
        <mxCell id="0Bdln4vo-bALyRf50QNs-152" style="edgeStyle=entityRelationEdgeStyle;rounded=0;orthogonalLoop=1;jettySize=auto;html=1;entryX=0.785;entryY=0.5;entryDx=0;entryDy=0;entryPerimeter=0;" edge="1" parent="1" source="0Bdln4vo-bALyRf50QNs-43" target="0Bdln4vo-bALyRf50QNs-37">
          <mxGeometry relative="1" as="geometry" />
        </mxCell>
        <mxCell id="0Bdln4vo-bALyRf50QNs-153" style="edgeStyle=entityRelationEdgeStyle;rounded=0;orthogonalLoop=1;jettySize=auto;html=1;entryX=0.785;entryY=0.5;entryDx=0;entryDy=0;entryPerimeter=0;" edge="1" parent="1" source="0Bdln4vo-bALyRf50QNs-43" target="0Bdln4vo-bALyRf50QNs-38">
          <mxGeometry relative="1" as="geometry" />
        </mxCell>
        <mxCell id="0Bdln4vo-bALyRf50QNs-162" value="" style="shape=mxgraph.cisco.wireless.wireless_transport;html=1;pointerEvents=1;dashed=0;fillColor=#036897;strokeColor=#ffffff;strokeWidth=2;verticalLabelPosition=bottom;verticalAlign=top;align=center;outlineConnect=0;" vertex="1" parent="1">
          <mxGeometry x="173" y="627" width="37" height="23" as="geometry" />
        </mxCell>
        <mxCell id="0Bdln4vo-bALyRf50QNs-168" style="edgeStyle=entityRelationEdgeStyle;rounded=0;orthogonalLoop=1;jettySize=auto;html=1;entryX=0.785;entryY=0.5;entryDx=0;entryDy=0;entryPerimeter=0;" edge="1" parent="1" source="0Bdln4vo-bALyRf50QNs-53" target="0Bdln4vo-bALyRf50QNs-49">
          <mxGeometry relative="1" as="geometry" />
        </mxCell>
        <mxCell id="0Bdln4vo-bALyRf50QNs-169" style="edgeStyle=entityRelationEdgeStyle;rounded=0;orthogonalLoop=1;jettySize=auto;html=1;entryX=0.785;entryY=0.5;entryDx=0;entryDy=0;entryPerimeter=0;" edge="1" parent="1" source="0Bdln4vo-bALyRf50QNs-53" target="0Bdln4vo-bALyRf50QNs-48">
          <mxGeometry relative="1" as="geometry" />
        </mxCell>
        <mxCell id="0Bdln4vo-bALyRf50QNs-175" style="edgeStyle=entityRelationEdgeStyle;rounded=0;orthogonalLoop=1;jettySize=auto;html=1;entryX=0.785;entryY=0.5;entryDx=0;entryDy=0;entryPerimeter=0;" edge="1" parent="1" source="0Bdln4vo-bALyRf50QNs-63" target="0Bdln4vo-bALyRf50QNs-59">
          <mxGeometry relative="1" as="geometry" />
        </mxCell>
        <mxCell id="0Bdln4vo-bALyRf50QNs-178" value="" style="edgeStyle=entityRelationEdgeStyle;rounded=0;orthogonalLoop=1;jettySize=auto;html=1;" edge="1" parent="1">
          <mxGeometry relative="1" as="geometry">
            <mxPoint x="380" y="600" as="sourcePoint" />
            <mxPoint x="378.25" y="654" as="targetPoint" />
          </mxGeometry>
        </mxCell>
        <mxCell id="0Bdln4vo-bALyRf50QNs-184" style="edgeStyle=entityRelationEdgeStyle;rounded=0;orthogonalLoop=1;jettySize=auto;html=1;entryX=0.6;entryY=0.5;entryDx=0;entryDy=0;entryPerimeter=0;" edge="1" parent="1" source="0Bdln4vo-bALyRf50QNs-127" target="0Bdln4vo-bALyRf50QNs-71">
          <mxGeometry relative="1" as="geometry" />
        </mxCell>
        <mxCell id="0Bdln4vo-bALyRf50QNs-187" style="edgeStyle=entityRelationEdgeStyle;rounded=0;orthogonalLoop=1;jettySize=auto;html=1;entryX=0.8;entryY=0.675;entryDx=0;entryDy=0;entryPerimeter=0;" edge="1" parent="1" source="0Bdln4vo-bALyRf50QNs-127" target="0Bdln4vo-bALyRf50QNs-53">
          <mxGeometry relative="1" as="geometry" />
        </mxCell>
        <mxCell id="0Bdln4vo-bALyRf50QNs-190" style="edgeStyle=entityRelationEdgeStyle;rounded=0;orthogonalLoop=1;jettySize=auto;html=1;entryX=0.646;entryY=0.539;entryDx=0;entryDy=0;entryPerimeter=0;" edge="1" parent="1" source="0Bdln4vo-bALyRf50QNs-127" target="0Bdln4vo-bALyRf50QNs-128">
          <mxGeometry relative="1" as="geometry" />
        </mxCell>
        <mxCell id="0Bdln4vo-bALyRf50QNs-192" style="edgeStyle=entityRelationEdgeStyle;rounded=0;orthogonalLoop=1;jettySize=auto;html=1;entryX=0.5;entryY=0;entryDx=0;entryDy=0;entryPerimeter=0;" edge="1" parent="1" source="0Bdln4vo-bALyRf50QNs-71" target="0Bdln4vo-bALyRf50QNs-72">
          <mxGeometry relative="1" as="geometry" />
        </mxCell>
        <mxCell id="0Bdln4vo-bALyRf50QNs-200" style="edgeStyle=entityRelationEdgeStyle;rounded=0;orthogonalLoop=1;jettySize=auto;html=1;entryX=0.785;entryY=0.5;entryDx=0;entryDy=0;entryPerimeter=0;" edge="1" parent="1" source="0Bdln4vo-bALyRf50QNs-80" target="0Bdln4vo-bALyRf50QNs-74">
          <mxGeometry relative="1" as="geometry" />
        </mxCell>
        <mxCell id="0Bdln4vo-bALyRf50QNs-201" style="edgeStyle=entityRelationEdgeStyle;rounded=0;orthogonalLoop=1;jettySize=auto;html=1;entryX=0.785;entryY=0.5;entryDx=0;entryDy=0;entryPerimeter=0;" edge="1" parent="1" source="0Bdln4vo-bALyRf50QNs-80" target="0Bdln4vo-bALyRf50QNs-76">
          <mxGeometry relative="1" as="geometry" />
        </mxCell>
        <mxCell id="0Bdln4vo-bALyRf50QNs-202" style="edgeStyle=entityRelationEdgeStyle;rounded=0;orthogonalLoop=1;jettySize=auto;html=1;entryX=0.785;entryY=0.5;entryDx=0;entryDy=0;entryPerimeter=0;" edge="1" parent="1" source="0Bdln4vo-bALyRf50QNs-80" target="0Bdln4vo-bALyRf50QNs-77">
          <mxGeometry relative="1" as="geometry" />
        </mxCell>
        <mxCell id="0Bdln4vo-bALyRf50QNs-211" style="edgeStyle=entityRelationEdgeStyle;rounded=0;orthogonalLoop=1;jettySize=auto;html=1;entryX=0.5;entryY=0;entryDx=0;entryDy=0;entryPerimeter=0;" edge="1" parent="1" source="0Bdln4vo-bALyRf50QNs-125" target="0Bdln4vo-bALyRf50QNs-106">
          <mxGeometry relative="1" as="geometry" />
        </mxCell>
        <mxCell id="0Bdln4vo-bALyRf50QNs-212" style="edgeStyle=entityRelationEdgeStyle;rounded=0;orthogonalLoop=1;jettySize=auto;html=1;entryX=0.5;entryY=0;entryDx=0;entryDy=0;entryPerimeter=0;" edge="1" parent="1" source="0Bdln4vo-bALyRf50QNs-125" target="0Bdln4vo-bALyRf50QNs-107">
          <mxGeometry relative="1" as="geometry" />
        </mxCell>
        <mxCell id="0Bdln4vo-bALyRf50QNs-213" style="edgeStyle=entityRelationEdgeStyle;rounded=0;orthogonalLoop=1;jettySize=auto;html=1;entryX=0.5;entryY=0;entryDx=0;entryDy=0;entryPerimeter=0;" edge="1" parent="1" source="0Bdln4vo-bALyRf50QNs-125" target="0Bdln4vo-bALyRf50QNs-108">
          <mxGeometry relative="1" as="geometry" />
        </mxCell>
        <mxCell id="0Bdln4vo-bALyRf50QNs-214" style="edgeStyle=entityRelationEdgeStyle;rounded=0;orthogonalLoop=1;jettySize=auto;html=1;entryX=0.5;entryY=0;entryDx=0;entryDy=0;entryPerimeter=0;" edge="1" parent="1" source="0Bdln4vo-bALyRf50QNs-125" target="0Bdln4vo-bALyRf50QNs-109">
          <mxGeometry relative="1" as="geometry" />
        </mxCell>
        <mxCell id="0Bdln4vo-bALyRf50QNs-215" style="edgeStyle=entityRelationEdgeStyle;rounded=0;orthogonalLoop=1;jettySize=auto;html=1;entryX=0.785;entryY=0;entryDx=0;entryDy=0;entryPerimeter=0;" edge="1" parent="1" source="0Bdln4vo-bALyRf50QNs-125" target="0Bdln4vo-bALyRf50QNs-110">
          <mxGeometry relative="1" as="geometry" />
        </mxCell>
        <mxCell id="0Bdln4vo-bALyRf50QNs-216" style="edgeStyle=entityRelationEdgeStyle;rounded=0;orthogonalLoop=1;jettySize=auto;html=1;entryX=0.785;entryY=0.5;entryDx=0;entryDy=0;entryPerimeter=0;" edge="1" parent="1" source="0Bdln4vo-bALyRf50QNs-71" target="0Bdln4vo-bALyRf50QNs-66">
          <mxGeometry relative="1" as="geometry" />
        </mxCell>
        <mxCell id="0Bdln4vo-bALyRf50QNs-218" style="edgeStyle=entityRelationEdgeStyle;rounded=0;orthogonalLoop=1;jettySize=auto;html=1;entryX=0.785;entryY=0.5;entryDx=0;entryDy=0;entryPerimeter=0;" edge="1" parent="1" source="0Bdln4vo-bALyRf50QNs-71" target="0Bdln4vo-bALyRf50QNs-68">
          <mxGeometry relative="1" as="geometry" />
        </mxCell>
        <mxCell id="0Bdln4vo-bALyRf50QNs-220" value="" style="points=[[0,0.58,0],[0.09,0.58,0],[0.36,0.39,0],[0.64,0.195,0],[0.91,0,0],[1,0,0],[1,0.25,0],[1,0.5,0],[1,0.75,0],[1,1,0],[0,1,0],[0.09,1,0],[0.36,1,0],[0.64,1,0],[0.91,1,0],[0,0.79,0]];verticalLabelPosition=bottom;sketch=0;html=1;verticalAlign=top;aspect=fixed;align=center;pointerEvents=1;shape=mxgraph.cisco19.wifi_indicator;fillColor=#005073;strokeColor=none;" vertex="1" parent="1">
          <mxGeometry x="15" y="636.57" width="10" height="10" as="geometry" />
        </mxCell>
        <mxCell id="0Bdln4vo-bALyRf50QNs-224" value="" style="points=[[0,0.58,0],[0.09,0.58,0],[0.36,0.39,0],[0.64,0.195,0],[0.91,0,0],[1,0,0],[1,0.25,0],[1,0.5,0],[1,0.75,0],[1,1,0],[0,1,0],[0.09,1,0],[0.36,1,0],[0.64,1,0],[0.91,1,0],[0,0.79,0]];verticalLabelPosition=bottom;sketch=0;html=1;verticalAlign=top;aspect=fixed;align=center;pointerEvents=1;shape=mxgraph.cisco19.wifi_indicator;fillColor=#005073;strokeColor=none;" vertex="1" parent="1">
          <mxGeometry x="176.5" y="663.5" width="10" height="10" as="geometry" />
        </mxCell>
        <mxCell id="0Bdln4vo-bALyRf50QNs-225" value="" style="points=[[0,0.58,0],[0.09,0.58,0],[0.36,0.39,0],[0.64,0.195,0],[0.91,0,0],[1,0,0],[1,0.25,0],[1,0.5,0],[1,0.75,0],[1,1,0],[0,1,0],[0.09,1,0],[0.36,1,0],[0.64,1,0],[0.91,1,0],[0,0.79,0]];verticalLabelPosition=bottom;sketch=0;html=1;verticalAlign=top;aspect=fixed;align=center;pointerEvents=1;shape=mxgraph.cisco19.wifi_indicator;fillColor=#005073;strokeColor=none;" vertex="1" parent="1">
          <mxGeometry x="178" y="502.25000000000006" width="10" height="10" as="geometry" />
        </mxCell>
        <mxCell id="0Bdln4vo-bALyRf50QNs-226" value="" style="points=[[0,0.58,0],[0.09,0.58,0],[0.36,0.39,0],[0.64,0.195,0],[0.91,0,0],[1,0,0],[1,0.25,0],[1,0.5,0],[1,0.75,0],[1,1,0],[0,1,0],[0.09,1,0],[0.36,1,0],[0.64,1,0],[0.91,1,0],[0,0.79,0]];verticalLabelPosition=bottom;sketch=0;html=1;verticalAlign=top;aspect=fixed;align=center;pointerEvents=1;shape=mxgraph.cisco19.wifi_indicator;fillColor=#005073;strokeColor=none;" vertex="1" parent="1">
          <mxGeometry x="225" y="647" width="10" height="10" as="geometry" />
        </mxCell>
        <mxCell id="0Bdln4vo-bALyRf50QNs-230" value="" style="points=[[0,0.58,0],[0.09,0.58,0],[0.36,0.39,0],[0.64,0.195,0],[0.91,0,0],[1,0,0],[1,0.25,0],[1,0.5,0],[1,0.75,0],[1,1,0],[0,1,0],[0.09,1,0],[0.36,1,0],[0.64,1,0],[0.91,1,0],[0,0.79,0]];verticalLabelPosition=bottom;sketch=0;html=1;verticalAlign=top;aspect=fixed;align=center;pointerEvents=1;shape=mxgraph.cisco19.wifi_indicator;fillColor=#005073;strokeColor=none;" vertex="1" parent="1">
          <mxGeometry x="396" y="673.5" width="10" height="10" as="geometry" />
        </mxCell>
        <mxCell id="0Bdln4vo-bALyRf50QNs-231" value="" style="points=[[0,0.58,0],[0.09,0.58,0],[0.36,0.39,0],[0.64,0.195,0],[0.91,0,0],[1,0,0],[1,0.25,0],[1,0.5,0],[1,0.75,0],[1,1,0],[0,1,0],[0.09,1,0],[0.36,1,0],[0.64,1,0],[0.91,1,0],[0,0.79,0]];verticalLabelPosition=bottom;sketch=0;html=1;verticalAlign=top;aspect=fixed;align=center;pointerEvents=1;shape=mxgraph.cisco19.wifi_indicator;fillColor=#005073;strokeColor=none;" vertex="1" parent="1">
          <mxGeometry x="390" y="510" width="10" height="10" as="geometry" />
        </mxCell>
        <mxCell id="0Bdln4vo-bALyRf50QNs-233" value="" style="points=[[0,0.58,0],[0.09,0.58,0],[0.36,0.39,0],[0.64,0.195,0],[0.91,0,0],[1,0,0],[1,0.25,0],[1,0.5,0],[1,0.75,0],[1,1,0],[0,1,0],[0.09,1,0],[0.36,1,0],[0.64,1,0],[0.91,1,0],[0,0.79,0]];verticalLabelPosition=bottom;sketch=0;html=1;verticalAlign=top;aspect=fixed;align=center;pointerEvents=1;shape=mxgraph.cisco19.wifi_indicator;fillColor=#005073;strokeColor=none;" vertex="1" parent="1">
          <mxGeometry x="757" y="658.5" width="10" height="10" as="geometry" />
        </mxCell>
        <mxCell id="0Bdln4vo-bALyRf50QNs-234" value="" style="points=[[0,0.58,0],[0.09,0.58,0],[0.36,0.39,0],[0.64,0.195,0],[0.91,0,0],[1,0,0],[1,0.25,0],[1,0.5,0],[1,0.75,0],[1,1,0],[0,1,0],[0.09,1,0],[0.36,1,0],[0.64,1,0],[0.91,1,0],[0,0.79,0]];verticalLabelPosition=bottom;sketch=0;html=1;verticalAlign=top;aspect=fixed;align=center;pointerEvents=1;shape=mxgraph.cisco19.wifi_indicator;fillColor=#005073;strokeColor=none;" vertex="1" parent="1">
          <mxGeometry x="757" y="687" width="10" height="10" as="geometry" />
        </mxCell>
        <mxCell id="0Bdln4vo-bALyRf50QNs-235" value="" style="points=[[0,0.58,0],[0.09,0.58,0],[0.36,0.39,0],[0.64,0.195,0],[0.91,0,0],[1,0,0],[1,0.25,0],[1,0.5,0],[1,0.75,0],[1,1,0],[0,1,0],[0.09,1,0],[0.36,1,0],[0.64,1,0],[0.91,1,0],[0,0.79,0]];verticalLabelPosition=bottom;sketch=0;html=1;verticalAlign=top;aspect=fixed;align=center;pointerEvents=1;shape=mxgraph.cisco19.wifi_indicator;fillColor=#005073;strokeColor=none;" vertex="1" parent="1">
          <mxGeometry x="740" y="700" width="10" height="10" as="geometry" />
        </mxCell>
        <mxCell id="0Bdln4vo-bALyRf50QNs-236" value="" style="points=[[0,0.58,0],[0.09,0.58,0],[0.36,0.39,0],[0.64,0.195,0],[0.91,0,0],[1,0,0],[1,0.25,0],[1,0.5,0],[1,0.75,0],[1,1,0],[0,1,0],[0.09,1,0],[0.36,1,0],[0.64,1,0],[0.91,1,0],[0,0.79,0]];verticalLabelPosition=bottom;sketch=0;html=1;verticalAlign=top;aspect=fixed;align=center;pointerEvents=1;shape=mxgraph.cisco19.wifi_indicator;fillColor=#005073;strokeColor=none;" vertex="1" parent="1">
          <mxGeometry x="15" y="990" width="10" height="10" as="geometry" />
        </mxCell>
        <mxCell id="0Bdln4vo-bALyRf50QNs-238" value="" style="points=[[0,0.58,0],[0.09,0.58,0],[0.36,0.39,0],[0.64,0.195,0],[0.91,0,0],[1,0,0],[1,0.25,0],[1,0.5,0],[1,0.75,0],[1,1,0],[0,1,0],[0.09,1,0],[0.36,1,0],[0.64,1,0],[0.91,1,0],[0,0.79,0]];verticalLabelPosition=bottom;sketch=0;html=1;verticalAlign=top;aspect=fixed;align=center;pointerEvents=1;shape=mxgraph.cisco19.wifi_indicator;fillColor=#005073;strokeColor=none;" vertex="1" parent="1">
          <mxGeometry x="170" y="858" width="10" height="10" as="geometry" />
        </mxCell>
        <mxCell id="0Bdln4vo-bALyRf50QNs-239" value="" style="points=[[0,0.58,0],[0.09,0.58,0],[0.36,0.39,0],[0.64,0.195,0],[0.91,0,0],[1,0,0],[1,0.25,0],[1,0.5,0],[1,0.75,0],[1,1,0],[0,1,0],[0.09,1,0],[0.36,1,0],[0.64,1,0],[0.91,1,0],[0,0.79,0]];verticalLabelPosition=bottom;sketch=0;html=1;verticalAlign=top;aspect=fixed;align=center;pointerEvents=1;shape=mxgraph.cisco19.wifi_indicator;fillColor=#005073;strokeColor=none;" vertex="1" parent="1">
          <mxGeometry x="173.5" y="1011.5" width="10" height="10" as="geometry" />
        </mxCell>
        <mxCell id="0Bdln4vo-bALyRf50QNs-240" value="" style="points=[[0,0.58,0],[0.09,0.58,0],[0.36,0.39,0],[0.64,0.195,0],[0.91,0,0],[1,0,0],[1,0.25,0],[1,0.5,0],[1,0.75,0],[1,1,0],[0,1,0],[0.09,1,0],[0.36,1,0],[0.64,1,0],[0.91,1,0],[0,0.79,0]];verticalLabelPosition=bottom;sketch=0;html=1;verticalAlign=top;aspect=fixed;align=center;pointerEvents=1;shape=mxgraph.cisco19.wifi_indicator;fillColor=#005073;strokeColor=none;" vertex="1" parent="1">
          <mxGeometry x="225" y="989" width="10" height="10" as="geometry" />
        </mxCell>
        <mxCell id="0Bdln4vo-bALyRf50QNs-241" value="" style="points=[[0,0.58,0],[0.09,0.58,0],[0.36,0.39,0],[0.64,0.195,0],[0.91,0,0],[1,0,0],[1,0.25,0],[1,0.5,0],[1,0.75,0],[1,1,0],[0,1,0],[0.09,1,0],[0.36,1,0],[0.64,1,0],[0.91,1,0],[0,0.79,0]];verticalLabelPosition=bottom;sketch=0;html=1;verticalAlign=top;aspect=fixed;align=center;pointerEvents=1;shape=mxgraph.cisco19.wifi_indicator;fillColor=#005073;strokeColor=none;" vertex="1" parent="1">
          <mxGeometry x="375" y="1005" width="10" height="10" as="geometry" />
        </mxCell>
        <mxCell id="0Bdln4vo-bALyRf50QNs-242" value="" style="points=[[0,0.58,0],[0.09,0.58,0],[0.36,0.39,0],[0.64,0.195,0],[0.91,0,0],[1,0,0],[1,0.25,0],[1,0.5,0],[1,0.75,0],[1,1,0],[0,1,0],[0.09,1,0],[0.36,1,0],[0.64,1,0],[0.91,1,0],[0,0.79,0]];verticalLabelPosition=bottom;sketch=0;html=1;verticalAlign=top;aspect=fixed;align=center;pointerEvents=1;shape=mxgraph.cisco19.wifi_indicator;fillColor=#005073;strokeColor=none;" vertex="1" parent="1">
          <mxGeometry x="375" y="862" width="10" height="10" as="geometry" />
        </mxCell>
        <mxCell id="0Bdln4vo-bALyRf50QNs-243" style="edgeStyle=entityRelationEdgeStyle;rounded=0;orthogonalLoop=1;jettySize=auto;html=1;exitX=0.5;exitY=0;exitDx=0;exitDy=0;exitPerimeter=0;entryX=0.519;entryY=-0.412;entryDx=0;entryDy=0;entryPerimeter=0;" edge="1" parent="1" source="0Bdln4vo-bALyRf50QNs-73" target="0Bdln4vo-bALyRf50QNs-73">
          <mxGeometry relative="1" as="geometry" />
        </mxCell>
        <mxCell id="0Bdln4vo-bALyRf50QNs-244" value="" style="points=[[0,0.58,0],[0.09,0.58,0],[0.36,0.39,0],[0.64,0.195,0],[0.91,0,0],[1,0,0],[1,0.25,0],[1,0.5,0],[1,0.75,0],[1,1,0],[0,1,0],[0.09,1,0],[0.36,1,0],[0.64,1,0],[0.91,1,0],[0,0.79,0]];verticalLabelPosition=bottom;sketch=0;html=1;verticalAlign=top;aspect=fixed;align=center;pointerEvents=1;shape=mxgraph.cisco19.wifi_indicator;fillColor=#005073;strokeColor=none;" vertex="1" parent="1">
          <mxGeometry x="576.5" y="1020" width="10" height="10" as="geometry" />
        </mxCell>
        <mxCell id="0Bdln4vo-bALyRf50QNs-245" value="" style="points=[[0,0.58,0],[0.09,0.58,0],[0.36,0.39,0],[0.64,0.195,0],[0.91,0,0],[1,0,0],[1,0.25,0],[1,0.5,0],[1,0.75,0],[1,1,0],[0,1,0],[0.09,1,0],[0.36,1,0],[0.64,1,0],[0.91,1,0],[0,0.79,0]];verticalLabelPosition=bottom;sketch=0;html=1;verticalAlign=top;aspect=fixed;align=center;pointerEvents=1;shape=mxgraph.cisco19.wifi_indicator;fillColor=#005073;strokeColor=none;" vertex="1" parent="1">
          <mxGeometry x="415" y="992" width="10" height="10" as="geometry" />
        </mxCell>
        <mxCell id="0Bdln4vo-bALyRf50QNs-246" value="" style="points=[[0,0.58,0],[0.09,0.58,0],[0.36,0.39,0],[0.64,0.195,0],[0.91,0,0],[1,0,0],[1,0.25,0],[1,0.5,0],[1,0.75,0],[1,1,0],[0,1,0],[0.09,1,0],[0.36,1,0],[0.64,1,0],[0.91,1,0],[0,0.79,0]];verticalLabelPosition=bottom;sketch=0;html=1;verticalAlign=top;aspect=fixed;align=center;pointerEvents=1;shape=mxgraph.cisco19.wifi_indicator;fillColor=#005073;strokeColor=none;" vertex="1" parent="1">
          <mxGeometry x="575" y="858" width="10" height="10" as="geometry" />
        </mxCell>
      </root>
    </mxGraphModel>
  </diagram>
</mxfile>
